<svg xmlns="http://www.w3.org/2000/svg">
    <symbol viewBox="0 0 30 22" id="vk-icon">
      <path
        d="M0.0914307 5.48964C0.0914307 4.63461 0.643326 4.17356 1.74712 4.1065L6.00052 4.13165C6.28599 4.13165 6.47629 4.25739 6.57145 4.50887C7.00916 5.76626 7.4992 6.85182 8.04158 7.76552C8.58397 8.67923 9.29287 9.73125 10.1683 10.9216C10.2444 11.0725 10.3681 11.1479 10.5394 11.1479C10.6726 11.1479 10.7773 11.0892 10.8534 10.9719L10.939 10.6953L10.9676 6.34467C10.9676 6.04289 10.8867 5.84171 10.7249 5.74112C10.5632 5.64052 10.2634 5.56508 9.82573 5.51478C9.48318 5.46449 9.3119 5.28007 9.3119 4.96153C9.3119 4.89447 9.32141 4.84417 9.34044 4.81064C9.74009 3.7209 10.8819 3.17603 12.766 3.17603L14.3646 3.15088C15.0878 3.15088 15.6872 3.31015 16.163 3.62869C16.6388 3.94723 16.8767 4.45019 16.8767 5.13757V10.8461C17.0099 10.93 17.1336 10.9719 17.2478 10.9719C17.5332 10.9719 17.7806 10.821 17.99 10.5192C20.0834 7.93737 21.2157 6.21054 21.387 5.33875C21.387 5.32198 21.406 5.28007 21.4441 5.21301C21.5773 4.96153 21.7962 4.74358 22.1007 4.55916C22.4051 4.37474 22.6716 4.24901 22.9 4.18194C22.9761 4.14841 23.0617 4.13165 23.1569 4.13165H27.5816L27.867 4.1568C28.2476 4.1568 28.5426 4.31607 28.752 4.63461C28.8281 4.7352 28.8804 4.84417 28.909 4.96153C28.9375 5.07889 28.9565 5.19624 28.966 5.3136C28.9756 5.43096 28.9803 5.49802 28.9803 5.51478V5.69082C28.8471 6.3782 28.5093 7.11168 27.9669 7.89126C27.4245 8.67085 26.7347 9.51331 25.8973 10.4186C25.06 11.324 24.5366 11.9191 24.3273 12.2041C24.156 12.4053 24.0704 12.5897 24.0704 12.7574C24.0704 12.8915 24.1465 13.0424 24.2987 13.2101L28.4665 17.8373C28.6949 18.1055 28.809 18.3989 28.809 18.7174C28.809 19.103 28.6378 19.4216 28.2952 19.6731C27.9527 19.9245 27.5435 20.0671 27.0677 20.1006L26.5824 20.1257H22.2434C22.2244 20.1257 22.1863 20.1299 22.1292 20.1383C22.0721 20.1467 22.034 20.1509 22.015 20.1509C21.5963 20.1509 21.2062 19.9916 20.8446 19.6731C20.7114 19.5389 19.8169 18.5498 18.1613 16.7056C18.0661 16.5883 17.9329 16.4793 17.7616 16.3787C17.6855 16.6469 17.5856 17.0325 17.4619 17.5355C17.3382 18.0385 17.2478 18.3989 17.1907 18.6169L17.105 19.0444C16.9147 19.6312 16.5151 19.9832 15.9061 20.1006L15.5065 20.1257H12.7089C11.1293 20.1257 9.55454 19.4887 7.98449 18.2145C6.41444 16.9403 5.0014 15.2931 3.74536 13.2729C2.48932 11.2527 1.31892 8.90137 0.234162 6.21893C0.139008 6.00098 0.0914307 5.75788 0.0914307 5.48964ZM17.2478 12.003C16.8481 12.003 16.4865 11.9065 16.163 11.7137C15.8395 11.5209 15.6777 11.2569 15.6777 10.9216V5.13757C15.6777 4.80226 15.5826 4.56335 15.3923 4.42085C15.202 4.27834 14.8689 4.20709 14.3931 4.20709L12.766 4.25739C11.9477 4.25739 11.3292 4.38313 10.9105 4.63461C11.7479 4.98668 12.1665 5.5567 12.1665 6.34467V10.7707C12.1285 11.1898 11.9382 11.5377 11.5956 11.8143C11.253 12.091 10.8724 12.2293 10.4538 12.2293C9.88282 12.2293 9.44511 11.9862 9.14062 11.5C7.65621 9.52169 6.55242 7.64398 5.82924 5.86686L5.57233 5.21301L1.77566 5.18786C1.52826 5.18786 1.39029 5.20044 1.36174 5.22558C1.3332 5.25073 1.31892 5.32198 1.31892 5.43934C1.31892 5.59023 1.33795 5.7495 1.37602 5.91715L1.97549 7.32544C3.57408 10.9635 5.31065 13.8304 7.18519 15.926C9.05974 18.0217 10.901 19.0695 12.7089 19.0695H15.5635C15.6777 19.0695 15.7634 19.0402 15.8205 18.9815C15.8776 18.9228 15.9251 18.8097 15.9632 18.642L16.0203 18.3905L16.5627 16.1775C16.7149 15.8757 16.8481 15.6745 16.9623 15.574C17.1717 15.3895 17.4191 15.2973 17.7045 15.2973C18.1613 15.2973 18.6275 15.5404 19.1033 16.0266L21.5297 18.7426C21.682 18.9605 21.8437 19.0695 22.015 19.0695H26.7252C27.2961 19.0695 27.5816 18.9438 27.5816 18.6923C27.5816 18.6085 27.553 18.5246 27.4959 18.4408L23.3567 13.889C23.0332 13.537 22.8714 13.1598 22.8714 12.7574C22.8714 12.355 23.0237 11.9694 23.3281 11.6006C23.5755 11.2653 24.0561 10.7078 24.7697 9.92825C25.4834 9.14866 26.1067 8.41937 26.6395 7.74038C27.1724 7.06138 27.5245 6.44526 27.6957 5.892L27.7814 5.56508C27.7623 5.53155 27.7528 5.47706 27.7528 5.40162C27.7528 5.32617 27.7433 5.2633 27.7243 5.21301H23.2425C22.957 5.3136 22.7287 5.46449 22.5574 5.66567L22.3861 6.14348C21.9103 7.30029 20.6638 9.08579 18.6465 11.5C18.2469 11.8353 17.7806 12.003 17.2478 12.003Z"
        />
    </symbol>
    <symbol viewBox="0 0 23 23" id="ig-icon">
      <path
        d="M11.3877 0C13.3044 0 14.8691 0.0224609 16.082 0.0673828C17.1152 0.112305 18.0361 0.291992 18.8447 0.606445C19.6234 0.905924 20.2972 1.34017 20.8662 1.90918C21.4352 2.47819 21.8695 3.15202 22.1689 3.93066C22.4834 4.73926 22.6631 5.66016 22.708 6.69336C22.7529 7.90625 22.7754 9.47103 22.7754 11.3877C22.7754 13.3044 22.7529 14.8691 22.708 16.082C22.6631 17.1152 22.4834 18.0361 22.1689 18.8447C21.8695 19.6234 21.4352 20.2972 20.8662 20.8662C20.2972 21.4352 19.6234 21.8695 18.8447 22.1689C18.0361 22.4834 17.1152 22.6631 16.082 22.708C14.8691 22.7529 13.3044 22.7754 11.3877 22.7754C9.47103 22.7754 7.90625 22.7529 6.69336 22.708C5.66016 22.6631 4.73926 22.4834 3.93066 22.1689C3.15202 21.8695 2.47819 21.4352 1.90918 20.8662C1.34017 20.2972 0.905924 19.6234 0.606445 18.8447C0.291992 18.0361 0.112305 17.1152 0.0673828 16.082C0.0224609 14.8691 0 13.3044 0 11.3877C0 9.47103 0.0224609 7.90625 0.0673828 6.69336C0.112305 5.66016 0.291992 4.73926 0.606445 3.93066C0.905924 3.15202 1.34017 2.47819 1.90918 1.90918C2.47819 1.34017 3.15202 0.905924 3.93066 0.606445C4.73926 0.291992 5.66016 0.112305 6.69336 0.0673828C7.90625 0.0224609 9.47103 0 11.3877 0ZM11.3877 1.48242C9.39616 1.48242 7.77148 1.50488 6.51367 1.5498C5.70508 1.57975 4.95638 1.72201 4.26758 1.97656C3.18945 2.42578 2.42578 3.18945 1.97656 4.26758C1.72201 4.95638 1.57975 5.70508 1.5498 6.51367C1.50488 7.77148 1.48242 9.39616 1.48242 11.3877C1.48242 13.3792 1.50488 15.0039 1.5498 16.2617C1.57975 17.0703 1.72201 17.819 1.97656 18.5078C2.42578 19.5859 3.18945 20.3496 4.26758 20.7988C4.95638 21.0534 5.70508 21.1956 6.51367 21.2256C7.77148 21.2705 9.39616 21.293 11.3877 21.293C13.3792 21.293 15.0039 21.2705 16.2617 21.2256C17.0703 21.1956 17.819 21.0534 18.5078 20.7988C19.5859 20.3496 20.3496 19.5859 20.7988 18.5078C21.0534 17.819 21.1956 17.0703 21.2256 16.2617C21.2705 15.0039 21.293 13.3792 21.293 11.3877C21.293 9.39616 21.2705 7.77148 21.2256 6.51367C21.1956 5.70508 21.0534 4.95638 20.7988 4.26758C20.3496 3.18945 19.5859 2.42578 18.5078 1.97656C17.819 1.72201 17.0703 1.57975 16.2617 1.5498C15.0039 1.50488 13.3792 1.48242 11.3877 1.48242ZM11.3877 15.9473C12.6455 15.9473 13.7199 15.5018 14.6108 14.6108C15.5018 13.7199 15.9473 12.6455 15.9473 11.3877C15.9473 10.1299 15.5018 9.0555 14.6108 8.16455C13.7199 7.2736 12.6455 6.82812 11.3877 6.82812C10.1299 6.82812 9.0555 7.2736 8.16455 8.16455C7.2736 9.0555 6.82812 10.1299 6.82812 11.3877C6.82812 12.6455 7.2736 13.7199 8.16455 14.6108C9.0555 15.5018 10.1299 15.9473 11.3877 15.9473ZM11.3877 5.54785C13.0049 5.54785 14.3825 6.11686 15.5205 7.25488C16.6585 8.3929 17.2275 9.77051 17.2275 11.3877C17.2275 13.0049 16.6585 14.3825 15.5205 15.5205C14.3825 16.6585 13.0049 17.2275 11.3877 17.2275C9.77051 17.2275 8.3929 16.6585 7.25488 15.5205C6.11686 14.3825 5.54785 13.0049 5.54785 11.3877C5.54785 9.77051 6.11686 8.3929 7.25488 7.25488C8.3929 6.11686 9.77051 5.54785 11.3877 5.54785ZM18.8447 5.32324C18.8447 5.69759 18.71 6.01579 18.4404 6.27783C18.1709 6.53988 17.8415 6.6709 17.4521 6.6709C17.0778 6.6709 16.7596 6.53988 16.4976 6.27783C16.2355 6.01579 16.1045 5.69759 16.1045 5.32324C16.1045 4.93392 16.2355 4.60449 16.4976 4.33496C16.7596 4.06543 17.0778 3.93066 17.4521 3.93066C17.8265 3.93066 18.1522 4.06917 18.4292 4.34619C18.7062 4.62321 18.8447 4.94889 18.8447 5.32324Z"
        />
    </symbol>
    <symbol viewBox="0 0 28 33" id="fb-icon">
      <path
        d="M21 2.75H17.5C15.9529 2.75 14.4692 3.46024 13.3752 4.72447C12.2813 5.98871 11.6667 7.70337 11.6667 9.49127V13.536H8.16669V18.929H11.6667V29.7151H16.3334V18.929H19.8334L21 13.536H16.3334V9.49127C16.3334 9.13369 16.4563 8.79076 16.6751 8.53791C16.8939 8.28506 17.1906 8.14302 17.5 8.14302H21V2.75Z"
        stroke-width="1.1" stroke-linecap="round" stroke-linejoin="round" />
    </symbol>
    <symbol id="html-academy-icon">
      <path d="M13.64.02 13.5 0 0 1.4v24.61L13.5 34 27 26.01V1.41L13.64 0Zm11.6 25L13.5 31.96 1.77 25.02v-10.1l11.68 6.93.02 1.25-8.02-4.75v1.23l8.04 4.8.02 1.3-8.05-4.76v1.22l8.04 4.81 8.12-4.83V16.9l3.62-2.15v10.26Zm0-11.57L22 15.33l-1.48.88-7.06-4.19-.01 1.23 6.04 3.57-.06.03-.13.07-.86.5-4.98-2.95-.01 1.22 3.93 2.33-.93.61-.02.01-2.97-1.74-.01 1.23 1.94 1.13-1.98 1.19L1.8 13.58l11.63-6.96 11.8 6.83Zm0-1.22L13.43 5.3 1.77 12.22V2.99L13.5 1.76 25.23 3v9.24Z"/>
    </symbol>
  </svg>
